<svg xmlns="http://www.w3.org/2000/svg" aria-hidden="true" style="position:absolute;width:0;height:0;overflow:hidden"><defs><symbol id="icon-arrow" fill="none" viewBox="0 0 24 20"><path stroke-width="2" d="m15 1 9 9-9 9M0 10h24"/></symbol><symbol id="icon-close" viewBox="0 0 30 32"><path d="m26.552 1.454 3.23 3.232L18.469 16l11.314 11.314-3.232 3.23-11.314-11.311L3.923 30.547l-3.23-3.232 11.311-11.316L.691 4.685l3.232-3.23 11.314 11.311L26.551 1.453z"/></symbol><symbol id="icon-hamburger" viewBox="0 0 45 32"><path d="M0 0h45.176v5.647H0zm0 13.176h45.176v5.647H0zm0 13.177h45.176V32H0z"/></symbol><symbol id="icon-linkedin" viewBox="0 0 32 32"><path d="M28.8 0H3.2A3.21 3.21 0 0 0 0 3.2v25.6C0 30.56 1.44 32 3.2 32h25.6c1.76 0 3.2-1.44 3.2-3.2V3.2C32 1.44 30.56 0 28.8 0zM9.6 27.2H4.8V12.8h4.8v14.4zM7.2 10.08c-1.6 0-2.88-1.28-2.88-2.88S5.6 4.32 7.2 4.32s2.88 1.28 2.88 2.88-1.28 2.88-2.88 2.88zm20 17.12h-4.8v-8.48c0-1.28-1.12-2.4-2.4-2.4s-2.4 1.12-2.4 2.4v8.48h-4.8V12.8h4.8v1.92c.8-1.28 2.56-2.24 4-2.24 3.04 0 5.6 2.56 5.6 5.6v9.12z"/></symbol><symbol id="icon-logo" viewBox="0 0 78 32"><path d="m8.658 31.416 1.808-5.005h11.069l1.808 5.004h8.658L19.727 1.28h-7.453L0 31.414h8.658zM18.794 19.36h-5.589l2.794-7.158 2.794 7.16zm17.444 12.056v-9.17c0-.621.176-1.199.53-1.735.36-.539.829-.979 1.377-1.295l.02-.011A3.57 3.57 0 0 1 40 18.703h.001c.512 0 1.074.104 1.69.31s1.147.481 1.598.822l3.178-6.393c-.523-.39-1.187-.706-1.99-.95s-1.565-.365-2.283-.365c-1.108 0-2.183.283-3.224.849s-1.952 1.355-2.73 2.366v-2.63h-7.598v18.704h7.598zM51.434 32c1.206 0 2.354-.168 3.443-.502s1.951-.728 2.584-1.178l-2.484-5.114c-.231.158-.55.302-.958.429s-.856.192-1.342.192c-.792 0-1.48-.174-2.064-.52a3.582 3.582 0 0 1-1.333-1.361l-.009-.018a3.8 3.8 0 0 1-.466-1.834v-.031.002c0-.535.13-1.095.392-1.68s.676-1.078 1.242-1.479 1.3-.602 2.201-.602c.95 0 1.729.206 2.338.621l2.484-5.114c-.608-.462-1.473-.858-2.594-1.187a11.98 11.98 0 0 0-3.441-.493h-.03.002c-1.522 0-2.932.277-4.229.831s-2.423 1.302-3.379 2.246a10.463 10.463 0 0 0-2.201 3.131l-.027.065a8.794 8.794 0 0 0-.794 3.68c0 1.352.283 2.628.85 3.827s1.342 2.256 2.328 3.169a11.01 11.01 0 0 0 3.333 2.12l.074.027c1.285.518 2.646.776 4.082.776zm11.762-.584V21.114c0-.634.128-1.182.384-1.644a2.72 2.72 0 0 1 1.064-1.071l.014-.007c.462-.256.998-.384 1.608-.384.925 0 1.667.283 2.227.85s.84 1.318.84 2.256v10.301h7.598V19.471c0-1.4-.328-2.651-.986-3.754a7.323 7.323 0 0 0-2.641-2.602l-.035-.019c-1.126-.646-2.402-.968-3.826-.968-1.12 0-2.226.204-3.315.612a9.677 9.677 0 0 0-2.945 1.736l.013-.011V-.001h-7.598v31.416h7.598z"/></symbol><symbol id="icon-twitter" viewBox="0 0 39 32"><path d="M38.788 4.133a15.465 15.465 0 0 1-4.494 1.244l-.076.008a8.015 8.015 0 0 0 3.483-4.346l.016-.056a15.63 15.63 0 0 1-4.952 1.914l-.102.017A7.923 7.923 0 0 0 26.865.401h-.011.001c-5.137 0-8.912 4.794-7.753 9.77C12.491 9.84 6.627 6.672 2.701 1.858.616 5.434 1.62 10.113 5.162 12.483a7.891 7.891 0 0 1-3.642-1.016l.04.021c-.087 3.687 2.555 7.135 6.383 7.903a8.047 8.047 0 0 1-3.646.128l.051.008c1.047 3.187 3.967 5.459 7.427 5.525h.008a15.9 15.9 0 0 1-9.875 3.411c-.672 0-1.334-.041-1.985-.122l.078.008c3.442 2.242 7.654 3.575 12.178 3.575h.022-.001c14.775 0 23.122-12.478 22.618-23.67a16.325 16.325 0 0 0 3.934-4.062l.036-.057z"/></symbol><symbol id="icon-footer" fill="none" viewBox="0 0 120 120"><path fill="#1B1D23" d="M0 0h120v120H0z"/><path fill="#fff" fill-rule="evenodd" d="m39.89 68.912-1.363 3.773H32l9.254-22.721h5.618l9.253 22.72h-6.527l-1.363-3.772H39.89Zm4.173-10.714-2.107 5.398h4.213l-2.106-5.398Z" clip-rule="evenodd"/><path fill="#fff" d="M59.32 72.684v-6.912c0-.468.133-.904.4-1.308a3.1 3.1 0 0 1 1.053-.985 2.72 2.72 0 0 1 1.384-.379c.385 0 .81.078 1.273.234.464.156.866.363 1.205.62l2.396-4.82c-.395-.293-.895-.532-1.5-.715a5.941 5.941 0 0 0-1.722-.276c-.835 0-1.645.213-2.43.64a6.536 6.536 0 0 0-2.06 1.784v-1.983h-5.727v14.1h5.728Z"/><path fill="#fff" d="M70.777 73.125c.909 0 1.774-.126 2.596-.379.821-.252 1.47-.548 1.948-.888l-1.873-3.856c-.174.12-.415.228-.723.324a3.37 3.37 0 0 1-1.012.145c-.596 0-1.115-.131-1.556-.393a2.684 2.684 0 0 1-1.012-1.04 2.898 2.898 0 0 1-.351-1.404c0-.404.099-.826.296-1.267.197-.44.51-.812.936-1.115.427-.303.98-.455 1.66-.455.716 0 1.303.156 1.762.469l1.873-3.856c-.459-.349-1.11-.647-1.955-.895a9.242 9.242 0 0 0-2.617-.372c-1.147 0-2.21.209-3.187.627a8.134 8.134 0 0 0-2.548 1.693 7.873 7.873 0 0 0-1.68 2.41c-.4.895-.599 1.82-.599 2.775 0 1.019.214 1.98.64 2.885a7.723 7.723 0 0 0 1.756 2.389A8.32 8.32 0 0 0 67.7 72.54c.969.39 1.995.585 3.078.585Z"/><path fill="#fff" d="M79.645 72.685v-7.767c0-.477.096-.89.29-1.239.192-.349.463-.62.811-.812.35-.193.753-.29 1.212-.29.698 0 1.258.214 1.68.64.422.428.634.995.634 1.701v7.767H90v-9.006c0-1.056-.248-1.999-.743-2.83a5.482 5.482 0 0 0-2.018-1.976c-.849-.486-1.81-.73-2.885-.73a7.08 7.08 0 0 0-2.499.462 7.276 7.276 0 0 0-2.21 1.301V49h-5.728v23.685h5.728Z"/></symbol></defs></svg>